<svg width="128" height="128" viewBox="0 0 128 128" fill="none" xmlns="http://www.w3.org/2000/svg">
<rect width="128" height="128" rx="36" fill="white"/>
<rect x="57" y="35" width="41" height="48" fill="white"/>
<path fill-rule="evenodd" clip-rule="evenodd" d="M76.9998 86.1111C91.4206 86.1111 103.111 74.4208 103.111 60C103.111 45.5793 91.4206 33.8889 76.9998 33.8889C62.579 33.8889 50.8887 45.5793 50.8887 60C50.8887 74.4208 62.579 86.1111 76.9998 86.1111ZM76.9998 74.737C85.1387 74.737 91.7366 68.1391 91.7366 60.0002C91.7366 51.8612 85.1387 45.2633 76.9998 45.2633C68.8609 45.2633 62.263 51.8612 62.263 60.0002C62.263 68.1391 68.8609 74.737 76.9998 74.737Z" fill="#3467A2"/>
<rect x="91.7368" y="54.4736" width="20.2632" height="38.6842" fill="#70AED1" fill-opacity="0.85"/>
<rect x="22.165" y="34" width="14" height="53" fill="#7091D1" fill-opacity="0.85"/>
<rect x="48.165" y="34" width="14" height="53" fill="#70A8D1" fill-opacity="0.85"/>
<path d="M22.1648 40.7205L33.8048 34.0001L62.1315 83.0633L48.6646 87L22.1648 40.7205Z" fill="#1C2956" fill-opacity="0.85"/>
</svg>
