<svg width="36" height="36" viewBox="0 0 36 36" fill="none" xmlns="http://www.w3.org/2000/svg">
<ellipse cx="19.2857" cy="19.2857" rx="12.6" ry="12.6" fill="white"/>
<path fill-rule="evenodd" clip-rule="evenodd" d="M18 36C27.9411 36 36 27.9411 36 18C36 8.05887 27.9411 0 18 0C8.05887 0 0 8.05887 0 18C0 27.9411 8.05887 36 18 36ZM18 25.579C22.1857 25.579 25.5789 22.1858 25.5789 18.0001C25.5789 13.8143 22.1857 10.4211 18 10.4211C13.8143 10.4211 10.4211 13.8143 10.4211 18.0001C10.4211 22.1858 13.8143 25.579 18 25.579Z" fill="#1C4B56"/>
<path fill-rule="evenodd" clip-rule="evenodd" d="M18.4286 31.8571C25.845 31.8571 31.8571 25.845 31.8571 18.4286C31.8571 11.0122 25.845 5 18.4286 5C11.0122 5 5 11.0122 5 18.4286C5 25.845 11.0122 31.8571 18.4286 31.8571ZM18 25.579C22.1857 25.579 25.5789 22.1858 25.5789 18.0001C25.5789 13.8143 22.1857 10.4211 18 10.4211C13.8142 10.4211 10.421 13.8143 10.421 18.0001C10.421 22.1858 13.8142 25.579 18 25.579Z" fill="#348CA2"/>
<rect x="25.579" y="15.1579" width="10.421" height="19.8947" fill="#70BED1" fill-opacity="0.85"/>
</svg>
