<svg width="36" height="36" viewBox="0 0 36 36" fill="none" xmlns="http://www.w3.org/2000/svg">
<rect width="36" height="36" rx="10" fill="#7D68FF"/>
<path d="M26.9261 10.7754C27.6848 10.0163 27.1474 8.71875 26.0745 8.71875H10.2068C9.13381 8.71875 8.59644 10.0163 9.35519 10.7754L16.998 18.4178V25.2861H14.9985C14.2098 25.2861 13.5703 25.9256 13.5703 26.7144C13.5703 26.8722 13.6981 27 13.8559 27H22.4253C22.5832 27 22.711 26.8722 22.711 26.7144C22.711 25.9256 22.0715 25.2861 21.2827 25.2861H19.2832V18.4178L26.9261 10.7754ZM24.8451 10.4326L23.1312 12.1465H13.1504L11.4365 10.4326H24.8451Z" fill="white"/>
</svg>
